PathFileType	4	(X/Y/Z)	C:\Users\Biomechanik\SynologyDrive\AlexP\Athlete_03\Athlete_3_25_03_31\Walking_05\marker_experimental.trc
DataRate	CameraRate	NumFrames	NumMarkers	Units	OrigDataRate	OrigDataStartFrame	OrigNumFrames
200.000000	200.000000	4	53	mm	200.000000	256	342
Frame#	Time	GLAB			RFHD			LFHD			C7			T6			SPINMOL			SPINM2			SPINM3			T12			BELTOL			BELT2			BELT3			SACROL			SACR2			SACR3			LTHOL			LTH2			LTH3			LSHAOL			LSHA2			LSHA3			LHEE			LTOE			LM5			RTHOL			RTH2			RTH3			RSHAOL			RSHA2			RSHA3			RHEE			RTOE			RM5			STRN			XIPH			LACR			LUAOL			LUA2			LUA3			LLAOL			LLA2			LLA3			LWRR			LWRU			RACR			RUAOL			RUA2			RUA3			RLAOL			RLA2			RLA3			RWRR			RWRU			
		X1	Y1	Z1	X2	Y2	Z2	X3	Y3	Z3	X4	Y4	Z4	X5	Y5	Z5	X6	Y6	Z6	X7	Y7	Z7	X8	Y8	Z8	X9	Y9	Z9	X10	Y10	Z10	X11	Y11	Z11	X12	Y12	Z12	X13	Y13	Z13	X14	Y14	Z14	X15	Y15	Z15	X16	Y16	Z16	X17	Y17	Z17	X18	Y18	Z18	X19	Y19	Z19	X20	Y20	Z20	X21	Y21	Z21	X22	Y22	Z22	X23	Y23	Z23	X24	Y24	Z24	X25	Y25	Z25	X26	Y26	Z26	X27	Y27	Z27	X28	Y28	Z28	X29	Y29	Z29	X30	Y30	Z30	X31	Y31	Z31	X32	Y32	Z32	X33	Y33	Z33	X34	Y34	Z34	X35	Y35	Z35	X36	Y36	Z36	X37	Y37	Z37	X38	Y38	Z38	X39	Y39	Z39	X40	Y40	Z40	X41	Y41	Z41	X42	Y42	Z42	X43	Y43	Z43	X44	Y44	Z44	X45	Y45	Z45	X46	Y46	Z46	X47	Y47	Z47	X48	Y48	Z48	X49	Y49	Z49	X50	Y50	Z50	X51	Y51	Z51	X52	Y52	Z52	X53	Y53	Z53	

257	1.28	1053.582153320312	1574.605834960938	288.872528076172	1003.639526367187	1600.133544921875	354.1219787597658	1012.736633300781	1602.887084960938	215.8276214599611	825.1607666015624	1419.035400390625	268.989471435547	771.2891845703124	1248.379516601562	256.283416748047	763.9246215820311	1209.004516601562	233.286102294922	760.0640869140624	1199.486328125	282.6895751953126	770.5392456054686	1144.439819335938	246.811965942383	795.6164550781249	1079.746826171875	247.4867401123048	765.2033691406249	1047.519897460938	230.0297851562501	764.9436035156249	1045.413696289062	280.3871154785157	759.7755737304686	985.518310546875	251.4611816406251	772.9402465820311	932.2901611328125	235.5982360839845	778.8212890624999	932.4081420898438	287.0006713867189	764.2197265625	872.2110595703125	262.6179504394532	838.82177734375	655.3077392578125	56.33301162719742	797.292236328125	601.1271362304688	96.52890014648452	835.9363403320312	595.3367309570312	65.61242675781266	719.0830078125	387.3766174316407	56.80332183837904	646.4354858398438	381.0860290527344	89.26247406005871	676.9789428710938	344.8372497558594	72.22210693359388	529.1885375976562	286.7960510253907	188.4461975097657	553.985107421875	73.4975509643555	182.5867004394532	508.0509033203125	106.522705078125	91.74933624267588	946.8518066406249	663.1762084960939	434.5359497070314	1019.369506835937	630.9180297851564	433.0886840820314	976.0160522460936	611.2343750000001	422.3760986328127	1020.445617675781	327.8852539062501	413.3455200195314	1063.561401367188	262.5516357421876	403.3836669921877	1014.210571289062	267.7248840332032	398.1604919433595	997.302734375	56.53182601928717	287.2152709960939	1212.171264648438	49.72454071044929	285.5606689453127	1162.93408203125	38.54371643066413	387.9689636230471	997.5095825195311	1322.31884765625	269.8740844726564	1016.293762207031	1179.344848632812	261.2943420410158	906.0957031249999	1392.86376953125	96.72116851806658	916.4109497070311	1249.334594726562	-13.44911193847639	909.0892944335936	1188.781860351562	-38.31567001342756	955.0372924804686	1195.980224609375	-15.54897403717023	1003.8251953125	1004.384582519531	-75.8504104614256	1001.071838378906	926.3101806640626	-63.25355911254864	1040.714599609375	955.3596801757814	-72.32379150390607	1111.744262695312	879.8847045898439	-68.63278198242168	1135.988159179688	900.2231445312501	4.917656898498744	902.5316772460935	1369.960205078125	438.2352600097658	867.9731445312498	1219.494995117188	528.6226196289064	886.2795410156248	1155.958740234375	537.1228027343751	835.9301757812498	1163.97216796875	544.9947509765626	845.486389160156	944.2362060546875	575.0356445312501	891.2033081054686	888.7931518554688	611.1797485351564	854.6152954101561	880.8040771484375	580.1354370117189	882.2523803710936	798.4510498046875	601.4200439453126	928.3839721679686	779.1273803710939	537.1804809570315	
258	1.285	1060.360961914062	1575.408081054688	289.4370727539064	1010.4697265625	1600.9833984375	354.7167968750002	1019.527160644531	1603.779418945312	216.4170227050783	831.8235473632811	1420.059448242188	269.5851440429689	777.9107666015624	1249.353393554688	256.985565185547	770.5928955078124	1209.93701171875	234.0322875976564	766.6904907226561	1200.483032226562	283.4479980468751	777.2154541015624	1145.390625	247.6314392089845	802.3150634765624	1080.646118164062	248.3659515380861	771.7382202148436	1048.10888671875	230.9003753662111	771.4472045898436	1046.064697265625	281.266326904297	766.3886108398436	986.1210327148438	252.4003295898439	779.7102050781249	932.7880859375	236.6194763183595	785.5018310546874	933.1368408203125	288.0450134277345	770.953857421875	872.8245239257812	263.8903808593751	849.2952270507812	655.213623046875	56.44698715209977	808.6136474609375	600.2337646484375	96.39138031005874	847.307373046875	595.1575927734375	65.41630554199234	732.6859130859375	389.3574218750001	56.16068649292006	660.130615234375	383.9116516113282	89.01731872558607	690.1444702148438	347.3295898437501	71.72251892089857	542.06884765625	291.5153198242188	188.7160491943361	564.1278686523438	76.90566253662112	182.2216796875001	518.1438598632812	111.4721450805664	91.92792510986338	952.0108032226561	663.8016357421876	435.0415344238283	1024.3037109375	631.0921630859376	433.4687805175783	980.6926879882811	611.6410522460939	422.7819824218752	1022.695068359375	328.0369873046876	413.3531799316408	1065.313232421875	262.3471984863282	403.4091796875002	1016.004333496094	267.9162902832032	398.0742492675783	997.4828491210938	56.72749710083014	286.946258544922	1212.447509765625	49.24501037597663	285.4429321289065	1162.994873046875	38.6568679809571	387.8770751953127	1004.158874511719	1323.33642578125	270.3345642089845	1022.887451171875	1180.325317382812	261.8497924804689	912.5503540039061	1393.76708984375	97.19691467285173	922.3067626953124	1250.001831054688	-12.83718204498274	914.6776733398436	1189.4443359375	-37.55791473388655	960.7037963867186	1196.479736328125	-14.89776229858381	1007.8369140625	1004.18212890625	-75.2462615966795	1004.172302246094	926.1510620117189	-62.61965179443341	1044.113525390625	954.6804809570314	-71.96695709228497	1114.191528320312	878.3132934570314	-68.78327941894511	1139.0859375	898.1574096679689	4.669955730438442	909.4517822265623	1371.0654296875	438.7754821777345	875.4871826171873	1220.573608398438	529.3767700195314	893.9683837890623	1157.093383789062	537.7886352539064	843.6473999023435	1164.97265625	545.9057617187501	854.3148803710935	945.0684204101562	575.8515014648439	900.5322265624999	889.8717651367188	611.6207885742189	863.8921508789061	881.6910400390625	580.7946166992189	892.2238159179686	799.535400390625	601.7485961914064	937.9537353515624	780.6057739257814	537.1302490234377	
259	1.29	1067.1259765625	1576.201538085938	289.9554443359377	1017.287780761719	1601.835327148438	355.2622070312502	1026.311767578125	1604.666625976562	216.9570159912111	838.4566650390624	1421.106323242188	270.1453857421877	784.4855957031249	1250.351196289062	257.6758422851564	777.2147216796874	1210.8876953125	234.7740936279298	773.2565917968749	1201.506591796875	284.2025756835939	783.8396606445311	1146.361694335938	248.4563293457033	808.9650878906249	1081.557983398438	249.2486267089845	778.2120361328124	1048.68701171875	231.8524475097658	777.9199829101561	1046.697509765625	282.2268066406252	772.9583129882811	986.7095336914062	253.4168090820314	786.4291381835936	933.3346557617188	237.6493530273439	792.1411743164061	933.9012451171875	289.0923156738283	777.6380615234375	873.4823608398438	265.161590576172	859.7128295898438	655.2530517578125	56.58657455444352	819.9165649414062	599.4879150390625	96.30372619628922	858.6541748046875	595.1298217773438	65.27960205078141	746.3543090820312	391.3702087402344	55.59179687500014	673.8739624023438	386.7093505859376	88.766815185547	703.4124145507812	349.8197937011719	71.28828430175794	554.904052734375	295.9274597167969	188.9802551269532	575.0169677734375	80.27043151855472	181.8975830078126	529.0580444335938	116.1375503540039	92.03601837158213	957.0264892578124	664.4463500976564	435.5167541503908	1029.091186523438	631.2899169921876	433.8450317382814	985.2251586914061	612.0749511718751	423.1765136718752	1024.781860351562	328.1846923828126	413.3780212402345	1066.923950195312	262.1576538085938	403.4815368652345	1017.664184570312	268.1065368652344	398.0034790039064	997.6425170898438	56.91512680053717	286.6914672851564	1212.685791015625	48.84717178344734	285.3612060546877	1163.047973632812	38.75593185424812	387.7974243164065	1010.771179199219	1324.346435546875	270.7472534179689	1029.42431640625	1181.304565429688	262.372283935547	918.9629516601561	1394.661010742188	97.62721252441423	928.1435546874999	1250.652221679688	-12.25289058685286	920.2166748046874	1190.086303710938	-36.81635284423811	966.3286132812499	1196.97509765625	-14.28491973876935	1011.793273925781	1003.979553222656	-74.66387939453107	1007.208190917969	926.0075683593751	-61.99503707885724	1047.443115234375	954.0048828125001	-71.62712097167949	1116.544555664062	876.7513427734376	-68.94779968261699	1142.102661132812	896.1044921875001	4.398381233215542	916.3474121093748	1372.182861328125	439.2767639160158	882.9785156249998	1221.674560546875	530.1096191406251	901.6334838867185	1158.254638671875	538.4422607421876	851.3428955078123	1166.000244140625	546.8048706054689	863.1701049804685	945.9310913085938	576.6898193359376	909.9066772460936	890.9965209960938	612.0574951171876	873.2039794921874	882.6154174804688	581.4722290039064	902.2496948242186	800.6596069335938	602.0725708007814	947.6000976562499	782.1489868164064	537.0822753906252	
260	1.295	1073.87841796875	1576.985229492188	290.426971435547	1024.095458984375	1602.68994140625	355.757537841797	1033.0908203125	1605.546264648438	217.4468231201174	845.0577392578124	1422.173583984375	270.6713867187502	791.0150146484374	1251.370971679688	258.3526000976564	783.7913818359374	1211.856079101562	235.5082855224611	779.7631225585936	1202.555297851562	284.9497680664064	790.4129638671874	1147.35205078125	249.281463623047	815.5667724609374	1082.483642578125	250.1300659179689	784.6278076171874	1049.269775390625	232.8756713867189	784.3641357421874	1047.328247070312	283.2580566406252	779.4850463867186	987.2992553710938	254.5009002685548	793.0989379882811	933.9345703125	238.6709442138673	798.7362670898436	934.7025756835938	290.1267395019533	784.27685546875	874.1864013671875	266.4089660644533	870.0711059570312	655.4161376953125	56.74914169311539	831.201416015625	598.8792724609375	96.26706695556656	869.9744262695312	595.2440185546875	65.19840240478531	760.0713500976562	393.4082336425782	55.10540390014663	687.6461791992188	389.4687500000001	88.52238464355482	716.7653198242188	352.2974853515626	70.92613220214857	567.6865234375	300.0102539062501	189.2350311279298	586.6449584960938	83.5486221313477	181.6222534179689	540.7659301757812	120.4661178588867	92.08406066894541	961.9094238281249	665.1138305664064	435.9710388183595	1033.741577148438	631.5085449218751	434.221405029297	989.6256713867186	612.5391845703126	423.5672607421877	1026.727172851562	328.3295288085938	413.4248962402345	1068.413452148438	261.9838562011719	403.5880126953127	1019.20703125	268.2946166992188	397.9554443359377	997.7836303710938	57.09775543212897	286.4520568847658	1212.890869140625	48.52046585083015	285.3125000000002	1163.09423828125	38.83956146240241	387.7302551269534	1017.347473144531	1325.350219726562	271.1160888671877	1035.907958984375	1182.284912109375	262.8656311035158	925.3341674804686	1395.546875	98.01619720459001	933.9230346679686	1251.28759765625	-11.6928462982176	925.7108764648436	1190.710327148438	-36.09309387207014	971.9138183593749	1197.468383789062	-13.70721244811994	1015.694274902344	1003.781066894531	-74.10294342040997	1010.178955078125	925.8839721679689	-61.38155364990216	1050.703125	953.3369750976564	-71.3039550781248	1118.80224609375	875.2022094726564	-69.12494659423808	1145.036865234375	894.0679321289064	4.104014396667691	923.2142333984373	1373.313598632812	439.7411193847658	890.4436035156248	1222.797485351562	530.8221435546876	909.2743530273435	1159.442749023438	539.0835571289064	859.015686035156	1167.053833007812	547.6920776367189	872.052551269531	946.8270874023438	577.5474243164064	919.3288574218749	892.168701171875	612.4853515625001	882.5468749999999	883.580810546875	582.1665039062501	912.3227539062499	801.82470703125	602.3897705078126	957.3143310546874	783.7556762695314	537.0354614257815	
